<svg width="40" height="40" viewBox="0 0 40 40" fill="none" xmlns="http://www.w3.org/2000/svg">
<path fill-rule="evenodd" clip-rule="evenodd" d="M30.625 18.75C35.8027 18.75 40 14.5527 40 9.37496C40 4.19729 35.8027 0 30.625 0C25.4473 0 21.25 4.19729 21.25 9.37496C21.25 14.5527 25.4473 18.75 30.625 18.75ZM30.625 5.62495C32.696 5.62495 34.375 7.30389 34.375 9.37496C34.375 11.446 32.696 13.125 30.625 13.125C28.5539 13.125 26.875 11.446 26.875 9.37496C26.875 7.30389 28.5539 5.62495 30.625 5.62495ZM8.74997 18.75C10.5962 18.75 12.0159 18.0678 13.0729 16.9876L13.1185 17.5938C13.1676 18.2459 13.711 18.75 14.365 18.75H17.5C18.1903 18.75 18.75 18.1903 18.75 17.5V1.24997C18.75 0.559609 18.1903 0 17.5 0H14.365C13.711 0 13.1676 0.504061 13.1185 1.15618L13.0729 1.7624C12.0159 0.682205 10.5962 0 8.74997 0C4.37499 0 0 4.19729 0 9.37496C0 14.5527 4.37499 18.75 8.74997 18.75ZM9.37495 5.62495C11.446 5.62495 13.125 7.30389 13.125 9.37496C13.125 11.446 11.446 13.125 9.37495 13.125C7.3039 13.125 5.62501 11.446 5.62501 9.37496C5.62501 7.30389 7.3039 5.62495 9.37495 5.62495ZM38.1229 21.875H34.381C33.7782 21.875 33.2655 22.306 33.1519 22.8981C31.9648 29.0796 26.5278 33.75 20 33.75C13.4721 33.75 8.03517 29.0796 6.84812 22.8981C6.73441 22.306 6.22175 21.875 5.61893 21.875H1.87707C1.11302 21.875 0.52896 22.5543 0.640447 23.3101C2.03322 32.7528 10.1703 40 20 40C29.8297 40 37.9667 32.7528 39.3595 23.3101C39.471 22.5543 38.8869 21.875 38.1229 21.875Z" fill="#12C35A"/>
</svg>
